<svg width="100" height="24" viewBox="0 0 100 24" fill="none" xmlns="http://www.w3.org/2000/svg">
<path d="M0.776 18V1.2H5.936C8.896 1.2 11.072 1.952 12.464 3.456C13.872 4.96 14.576 7.024 14.576 9.648C14.576 12.224 13.872 14.264 12.464 15.768C11.072 17.256 8.896 18 5.936 18H0.776ZM2.792 16.32H5.888C7.52 16.32 8.816 16.056 9.776 15.528C10.752 14.984 11.448 14.216 11.864 13.224C12.28 12.216 12.488 11.024 12.488 9.648C12.488 8.24 12.28 7.032 11.864 6.024C11.448 5.016 10.752 4.24 9.776 3.696C8.816 3.152 7.52 2.88 5.888 2.88H2.792V16.32ZM22.3109 18.288C21.1909 18.288 20.1829 18.032 19.2869 17.52C18.3909 17.008 17.6789 16.288 17.1509 15.36C16.6389 14.416 16.3829 13.312 16.3829 12.048C16.3829 10.784 16.6469 9.688 17.1749 8.76C17.7029 7.816 18.4149 7.088 19.3109 6.576C20.2229 6.064 21.2389 5.808 22.3589 5.808C23.4789 5.808 24.4869 6.064 25.3829 6.576C26.2789 7.088 26.9829 7.816 27.4949 8.76C28.0229 9.688 28.2869 10.784 28.2869 12.048C28.2869 13.312 28.0229 14.416 27.4949 15.36C26.9669 16.288 26.2469 17.008 25.3349 17.52C24.4389 18.032 23.4309 18.288 22.3109 18.288ZM22.3109 16.56C22.9989 16.56 23.6389 16.392 24.2309 16.056C24.8229 15.72 25.3029 15.216 25.6709 14.544C26.0389 13.872 26.2229 13.04 26.2229 12.048C26.2229 11.056 26.0389 10.224 25.6709 9.552C25.3189 8.88 24.8469 8.376 24.2549 8.04C23.6629 7.704 23.0309 7.536 22.3589 7.536C21.6709 7.536 21.0309 7.704 20.4389 8.04C19.8469 8.376 19.3669 8.88 18.9989 9.552C18.6309 10.224 18.4469 11.056 18.4469 12.048C18.4469 13.04 18.6309 13.872 18.9989 14.544C19.3669 15.216 19.8389 15.72 20.4149 16.056C21.0069 16.392 21.6389 16.56 22.3109 16.56ZM36.0821 18.288C34.9461 18.288 33.9221 18.032 33.0101 17.52C32.1141 16.992 31.4021 16.264 30.8741 15.336C30.3621 14.392 30.1061 13.296 30.1061 12.048C30.1061 10.8 30.3621 9.712 30.8741 8.784C31.4021 7.84 32.1141 7.112 33.0101 6.6C33.9221 6.072 34.9461 5.808 36.0821 5.808C37.4901 5.808 38.6741 6.176 39.6341 6.912C40.6101 7.648 41.2261 8.632 41.4821 9.864H39.4181C39.2581 9.128 38.8661 8.56 38.2421 8.16C37.6181 7.744 36.8901 7.536 36.0581 7.536C35.3861 7.536 34.7541 7.704 34.1621 8.04C33.5701 8.376 33.0901 8.88 32.7221 9.552C32.3541 10.224 32.1701 11.056 32.1701 12.048C32.1701 13.04 32.3541 13.872 32.7221 14.544C33.0901 15.216 33.5701 15.728 34.1621 16.08C34.7541 16.416 35.3861 16.584 36.0581 16.584C36.8901 16.584 37.6181 16.384 38.2421 15.984C38.8661 15.568 39.2581 14.984 39.4181 14.232H41.4821C41.2421 15.432 40.6341 16.408 39.6581 17.16C38.6821 17.912 37.4901 18.288 36.0821 18.288ZM55.4011 18.288C54.1691 18.288 53.0811 18.08 52.1371 17.664C51.1931 17.232 50.4491 16.624 49.9051 15.84C49.3611 15.04 49.0811 14.072 49.0651 12.936H52.3051C52.3371 13.72 52.6171 14.384 53.1451 14.928C53.6891 15.456 54.4331 15.72 55.3771 15.72C56.1931 15.72 56.8411 15.528 57.3211 15.144C57.8011 14.744 58.0411 14.216 58.0411 13.56C58.0411 12.872 57.8251 12.336 57.3931 11.952C56.9771 11.568 56.4171 11.256 55.7131 11.016C55.0091 10.776 54.2571 10.52 53.4571 10.248C52.1611 9.8 51.1691 9.224 50.4811 8.52C49.8091 7.816 49.4731 6.88 49.4731 5.712C49.4571 4.72 49.6891 3.872 50.1691 3.168C50.6651 2.448 51.3371 1.896 52.1851 1.512C53.0331 1.112 54.0091 0.912 55.1131 0.912C56.2331 0.912 57.2171 1.112 58.0651 1.512C58.9291 1.912 59.6011 2.472 60.0811 3.192C60.5771 3.912 60.8411 4.768 60.8731 5.76H57.5851C57.5691 5.168 57.3371 4.648 56.8891 4.2C56.4571 3.736 55.8491 3.504 55.0651 3.504C54.3931 3.488 53.8251 3.656 53.3611 4.008C52.9131 4.344 52.6891 4.84 52.6891 5.496C52.6891 6.056 52.8651 6.504 53.2171 6.84C53.5691 7.16 54.0491 7.432 54.6571 7.656C55.2651 7.88 55.9611 8.12 56.7451 8.376C57.5771 8.664 58.3371 9 59.0251 9.384C59.7131 9.768 60.2651 10.28 60.6811 10.92C61.0971 11.544 61.3051 12.352 61.3051 13.344C61.3051 14.224 61.0811 15.04 60.6331 15.792C60.1851 16.544 59.5211 17.152 58.6411 17.616C57.7611 18.064 56.6811 18.288 55.4011 18.288ZM67.5374 18.288C66.5134 18.288 65.6734 18.128 65.0174 17.808C64.3614 17.472 63.8734 17.032 63.5534 16.488C63.2334 15.944 63.0734 15.344 63.0734 14.688C63.0734 13.584 63.5054 12.688 64.3694 12C65.2334 11.312 66.5294 10.968 68.2574 10.968H71.2814V10.68C71.2814 9.864 71.0494 9.264 70.5854 8.88C70.1214 8.496 69.5454 8.304 68.8574 8.304C68.2334 8.304 67.6894 8.456 67.2254 8.76C66.7614 9.048 66.4734 9.48 66.3614 10.056H63.3614C63.4414 9.192 63.7294 8.44 64.2254 7.8C64.7374 7.16 65.3934 6.672 66.1934 6.336C66.9934 5.984 67.8894 5.808 68.8814 5.808C70.5774 5.808 71.9134 6.232 72.8894 7.08C73.8654 7.928 74.3534 9.128 74.3534 10.68V18H71.7374L71.4494 16.08C71.0974 16.72 70.6014 17.248 69.9614 17.664C69.3374 18.08 68.5294 18.288 67.5374 18.288ZM68.2334 15.888C69.1134 15.888 69.7934 15.6 70.2734 15.024C70.7694 14.448 71.0814 13.736 71.2094 12.888H68.5934C67.7774 12.888 67.1934 13.04 66.8414 13.344C66.4894 13.632 66.3134 13.992 66.3134 14.424C66.3134 14.888 66.4894 15.248 66.8414 15.504C67.1934 15.76 67.6574 15.888 68.2334 15.888ZM77.8946 23.28L80.6546 17.208H79.9346L75.3026 6.096H78.6386L81.9746 14.472L85.4546 6.096H88.7186L81.1586 23.28H77.8946ZM94.5809 18.288C93.5249 18.288 92.5969 18.12 91.7969 17.784C90.9969 17.432 90.3569 16.952 89.8769 16.344C89.3969 15.736 89.1089 15.032 89.0129 14.232H92.1089C92.2049 14.696 92.4609 15.096 92.8769 15.432C93.3089 15.752 93.8609 15.912 94.5329 15.912C95.2049 15.912 95.6929 15.776 95.9969 15.504C96.3169 15.232 96.4769 14.92 96.4769 14.568C96.4769 14.056 96.2529 13.712 95.8049 13.536C95.3569 13.344 94.7329 13.16 93.9329 12.984C93.4209 12.872 92.9009 12.736 92.3729 12.576C91.8449 12.416 91.3569 12.216 90.9089 11.976C90.4769 11.72 90.1249 11.4 89.8529 11.016C89.5809 10.616 89.4449 10.128 89.4449 9.552C89.4449 8.496 89.8609 7.608 90.6929 6.888C91.5409 6.168 92.7249 5.808 94.2449 5.808C95.6529 5.808 96.7729 6.136 97.6049 6.792C98.4529 7.448 98.9569 8.352 99.1169 9.504H96.2129C96.0369 8.624 95.3729 8.184 94.2209 8.184C93.6449 8.184 93.1969 8.296 92.8769 8.52C92.5729 8.744 92.4209 9.024 92.4209 9.36C92.4209 9.712 92.6529 9.992 93.1169 10.2C93.5809 10.408 94.1969 10.6 94.9649 10.776C95.7969 10.968 96.5569 11.184 97.2449 11.424C97.9489 11.648 98.5089 11.992 98.9249 12.456C99.3409 12.904 99.5489 13.552 99.5489 14.4C99.5649 15.136 99.3729 15.8 98.9729 16.392C98.5729 16.984 97.9969 17.448 97.2449 17.784C96.4929 18.12 95.6049 18.288 94.5809 18.288Z" fill="#0C1D4B"/>
</svg>
